<svg width="93" height="93" viewBox="0 0 93 93" fill="none" xmlns="http://www.w3.org/2000/svg">
<path d="M38.3784 31.378H34.875L45.0078 8.69512H48.4572L58.59 31.378H55.0866L46.8403 12.2836H46.6247L38.3784 31.378ZM39.6719 22.5175H53.7931V24.9542H39.6719V22.5175Z" fill="white"/>
<path d="M70.6799 22.6829C70.6799 27.3403 69.6468 31.3651 67.5805 34.7575C65.5143 38.1499 62.6798 40.766 59.0771 42.606C55.4743 44.4459 51.3595 45.3659 46.7324 45.3659C42.1054 45.3659 37.9905 44.4459 34.3878 42.606C30.7851 40.766 27.9506 38.1499 25.8843 34.7575C23.8181 31.3651 22.7849 27.3403 22.7849 22.6829C22.7849 18.0256 23.8181 14.0007 25.8843 10.6084C27.9506 7.21599 30.7851 4.59983 34.3878 2.7599C37.9905 0.919967 42.1054 0 46.7324 0C51.3595 0 55.4743 0.919967 59.0771 2.7599C62.6798 4.59983 65.5143 7.21599 67.5805 10.6084C69.6468 14.0007 70.6799 18.0256 70.6799 22.6829ZM64.3222 22.6829C64.3222 18.8593 63.5363 15.6322 61.9645 13.0017C60.4104 10.3712 58.3 8.38032 55.6333 7.02912C52.9842 5.67792 50.0173 5.00232 46.7324 5.00232C43.4476 5.00232 40.4718 5.67792 37.8051 7.02912C35.1561 8.38032 33.0456 10.3712 31.4739 13.0017C29.9197 15.6322 29.1427 18.8593 29.1427 22.6829C29.1427 26.5065 29.9197 29.7336 31.4739 32.3641C33.0456 34.9947 35.1561 36.9855 37.8051 38.3367C40.4718 39.6879 43.4476 40.3635 46.7324 40.3635C50.0173 40.3635 52.9842 39.6879 55.6333 38.3367C58.3 36.9855 60.4104 34.9947 61.9645 32.3641C63.5363 29.7336 64.3222 26.5065 64.3222 22.6829Z" fill="white"/>
<path d="M13.7386 4.91466L45.8659 79.0646H47.1341L79.2614 4.91466H93L53.2636 93H39.7364L0 4.91466H13.7386Z" fill="white"/>
</svg>
