<svg width="128" height="16" viewBox="0 0 128 16" fill="none" xmlns="http://www.w3.org/2000/svg">
<path d="M7.5 0.599999H5.96L0.3 15H1.7L3.4 10.48H9.96L11.62 15H13.02L7.5 0.599999ZM6.68 1.76L9.5 9.32H3.86L6.68 1.76ZM18.3398 13.52L14.9798 4.64H13.6798L17.6398 15H18.9798L22.9998 4.64H21.6998L18.3398 13.52ZM28.4198 15.04V14.06C28.2598 14.1 28.0998 14.14 27.9398 14.16C27.7598 14.18 27.5998 14.2 27.4398 14.2C27.1798 14.2 26.9998 14.18 26.8598 14.12C26.7198 14.06 26.5998 13.98 26.5398 13.86C26.4798 13.74 26.4398 13.58 26.4198 13.4C26.3998 13.22 26.3998 13 26.3998 12.74V5.64H28.3398V4.64H26.3998V1.76H25.1998V4.64H23.7398V5.64H25.1998V13.22C25.1998 14 25.3598 14.52 25.6798 14.82C25.9798 15.14 26.4398 15.28 27.0398 15.28C27.3398 15.28 27.5998 15.24 27.8398 15.18C28.0798 15.12 28.2798 15.06 28.4198 15.04ZM34.4663 15.28C35.1863 15.28 35.8463 15.16 36.4463 14.88C37.0263 14.62 37.5463 14.26 37.9663 13.78C38.3863 13.3 38.7063 12.72 38.9263 12.06C39.1463 11.4 39.2663 10.64 39.2663 9.82C39.2663 9.06 39.1663 8.34 38.9863 7.68C38.7863 7.02 38.4863 6.44 38.0863 5.94C37.6863 5.46 37.1863 5.08 36.5863 4.78C35.9863 4.5 35.2863 4.36 34.4663 4.36C33.6663 4.36 32.9663 4.5 32.3663 4.78C31.7663 5.08 31.2663 5.46 30.8663 5.96C30.4663 6.46 30.1663 7.02 29.9663 7.68C29.7663 8.34 29.6663 9.06 29.6663 9.82C29.6663 10.72 29.7863 11.52 30.0463 12.2C30.3063 12.88 30.6463 13.44 31.0863 13.9C31.5063 14.36 32.0263 14.7 32.6063 14.92C33.1863 15.14 33.8063 15.26 34.4663 15.28ZM37.9863 9.82C37.9863 10.38 37.9263 10.92 37.7863 11.44C37.6463 11.96 37.4463 12.42 37.1663 12.84C36.8863 13.26 36.5263 13.58 36.0863 13.82C35.6263 14.08 35.0863 14.2 34.4663 14.2C33.8863 14.2 33.3863 14.1 32.9463 13.88C32.5063 13.66 32.1463 13.36 31.8462 12.98C31.5462 12.6 31.3263 12.12 31.1863 11.58C31.0263 11.04 30.9463 10.46 30.9463 9.82C30.9463 9.26 31.0063 8.72 31.1463 8.18C31.2863 7.66 31.4863 7.2 31.7663 6.78C32.0463 6.38 32.4063 6.06 32.8663 5.8C33.3063 5.56 33.8463 5.44 34.4663 5.44C35.1063 5.44 35.6463 5.56 36.0863 5.78C36.5263 6 36.8863 6.32 37.1663 6.7C37.4463 7.1 37.6463 7.56 37.7863 8.1C37.9263 8.64 37.9863 9.2 37.9863 9.82ZM41.0795 7.82C41.0795 8.86 41.2195 9.84 41.4995 10.74C41.7795 11.66 42.1995 12.46 42.7595 13.14C43.3195 13.84 44.0195 14.38 44.8595 14.78C45.6995 15.18 46.6795 15.38 47.7795 15.38C48.8795 15.38 49.8595 15.18 50.6995 14.78C51.5395 14.38 52.2395 13.84 52.7995 13.14C53.3595 12.46 53.7795 11.66 54.0795 10.74C54.3595 9.84 54.4995 8.86 54.4995 7.82C54.4995 6.76 54.3595 5.78 54.0795 4.84C53.7795 3.92 53.3595 3.12 52.7995 2.42C52.2195 1.74 51.5195 1.2 50.6795 0.799999C49.8195 0.419999 48.8395 0.22 47.7195 0.22C46.6395 0.22 45.6795 0.419999 44.8595 0.819999C44.0395 1.22 43.3395 1.76 42.7795 2.44C42.2195 3.14 41.7995 3.94 41.5195 4.86C41.2195 5.78 41.0795 6.76 41.0795 7.82ZM47.7995 14.22C46.8595 14.22 46.0395 14.04 45.3795 13.7C44.6995 13.36 44.1395 12.88 43.7195 12.3C43.2795 11.72 42.9595 11.04 42.7595 10.26C42.5395 9.48 42.4395 8.68 42.4395 7.82C42.4395 6.98 42.5395 6.18 42.7595 5.4C42.9595 4.62 43.2795 3.94 43.7195 3.34C44.1395 2.76 44.6995 2.28 45.3795 1.92C46.0395 1.56 46.8395 1.38 47.7595 1.38C48.5795 1.38 49.3395 1.52 49.9995 1.82C50.6595 2.12 51.2395 2.54 51.6995 3.1C52.1595 3.66 52.5195 4.34 52.7795 5.12C53.0195 5.92 53.1395 6.82 53.1395 7.82C53.1395 8.66 53.0395 9.46 52.8395 10.24C52.6195 11.02 52.2995 11.7 51.8795 12.28C51.4395 12.86 50.8795 13.34 50.2195 13.68C49.5395 14.04 48.7395 14.22 47.7995 14.22ZM60.6659 15.04V14.06C60.5059 14.1 60.3459 14.14 60.1859 14.16C60.0059 14.18 59.8459 14.2 59.6859 14.2C59.4259 14.2 59.2459 14.18 59.1059 14.12C58.9659 14.06 58.8459 13.98 58.7859 13.86C58.7259 13.74 58.6859 13.58 58.6659 13.4C58.6459 13.22 58.6459 13 58.6459 12.74V5.64H60.5859V4.64H58.6459V1.76H57.4459V4.64H55.9859V5.64H57.4459V13.22C57.4459 14 57.6059 14.52 57.9259 14.82C58.2259 15.14 58.6859 15.28 59.2859 15.28C59.5859 15.28 59.8459 15.24 60.0859 15.18C60.3259 15.12 60.5259 15.06 60.6659 15.04ZM66.7123 15.28C67.4323 15.28 68.0923 15.16 68.6923 14.88C69.2723 14.62 69.7923 14.26 70.2123 13.78C70.6323 13.3 70.9523 12.72 71.1723 12.06C71.3923 11.4 71.5123 10.64 71.5123 9.82C71.5123 9.06 71.4123 8.34 71.2323 7.68C71.0323 7.02 70.7323 6.44 70.3323 5.94C69.9323 5.46 69.4323 5.08 68.8323 4.78C68.2323 4.5 67.5323 4.36 66.7123 4.36C65.9123 4.36 65.2123 4.5 64.6123 4.78C64.0123 5.08 63.5123 5.46 63.1123 5.96C62.7123 6.46 62.4123 7.02 62.2123 7.68C62.0123 8.34 61.9123 9.06 61.9123 9.82C61.9123 10.72 62.0323 11.52 62.2923 12.2C62.5523 12.88 62.8923 13.44 63.3323 13.9C63.7523 14.36 64.2723 14.7 64.8523 14.92C65.4323 15.14 66.0523 15.26 66.7123 15.28ZM70.2323 9.82C70.2323 10.38 70.1723 10.92 70.0323 11.44C69.8923 11.96 69.6923 12.42 69.4123 12.84C69.1323 13.26 68.7723 13.58 68.3323 13.82C67.8723 14.08 67.3323 14.2 66.7123 14.2C66.1323 14.2 65.6323 14.1 65.1923 13.88C64.7523 13.66 64.3923 13.36 64.0923 12.98C63.7923 12.6 63.5723 12.12 63.4323 11.58C63.2723 11.04 63.1923 10.46 63.1923 9.82C63.1923 9.26 63.2523 8.72 63.3923 8.18C63.5323 7.66 63.7323 7.2 64.0123 6.78C64.2923 6.38 64.6523 6.06 65.1123 5.8C65.5523 5.56 66.0923 5.44 66.7123 5.44C67.3523 5.44 67.8923 5.56 68.3323 5.78C68.7723 6 69.1323 6.32 69.4123 6.7C69.6923 7.1 69.8923 7.56 70.0323 8.1C70.1723 8.64 70.2323 9.2 70.2323 9.82ZM78.3856 13.4L74.0456 0.599999H72.6256L77.6256 15H79.1256L84.1256 0.599999H82.7056L78.3856 13.4ZM86.6322 11.76H85.4122C85.4322 12.26 85.5522 12.72 85.7322 13.14C85.9122 13.56 86.1722 13.94 86.5122 14.26C86.8522 14.58 87.2522 14.82 87.7322 15.02C88.1922 15.2 88.7322 15.28 89.3522 15.28C89.9722 15.28 90.5322 15.22 91.0522 15.1C91.5522 14.96 91.9922 14.78 92.3722 14.52C92.7522 14.26 93.0322 13.94 93.2522 13.56C93.4722 13.18 93.5722 12.76 93.5722 12.26C93.5722 11.6 93.4122 11.08 93.0922 10.7C92.7522 10.32 92.3522 10.02 91.8522 9.8C91.3522 9.58 90.8322 9.42 90.2522 9.3C89.6722 9.18 89.1522 9.04 88.6522 8.88C88.1522 8.74 87.7522 8.54 87.4322 8.28C87.0922 8.04 86.9322 7.68 86.9322 7.22C86.9322 6.68 87.1322 6.26 87.5322 5.92C87.9322 5.6 88.5122 5.44 89.2722 5.44C90.0322 5.44 90.6722 5.6 91.1722 5.92C91.6722 6.26 91.9722 6.82 92.0722 7.62H93.2922C93.1522 6.44 92.7322 5.6 92.0322 5.1C91.3322 4.6 90.4122 4.36 89.2922 4.36C88.1322 4.36 87.2322 4.64 86.6122 5.18C85.9722 5.74 85.6522 6.46 85.6522 7.32C85.6522 8 85.8122 8.52 86.1522 8.9C86.4722 9.28 86.8722 9.56 87.3722 9.76C87.8722 9.96 88.3922 10.1 88.9722 10.2C89.5522 10.3 90.0722 10.42 90.5722 10.56C91.0722 10.7 91.4722 10.9 91.8122 11.14C92.1322 11.4 92.2922 11.78 92.2922 12.28C92.2922 12.54 92.2322 12.78 92.1322 13C92.0322 13.22 91.8722 13.42 91.6722 13.6C91.4522 13.78 91.1922 13.94 90.8722 14.04C90.5522 14.14 90.1722 14.2 89.7322 14.2C88.8322 14.2 88.1322 14.02 87.6522 13.64C87.1522 13.28 86.8122 12.66 86.6322 11.76ZM104.152 15V4.64H102.952V10.28C102.952 10.86 102.872 11.38 102.732 11.86C102.592 12.34 102.372 12.76 102.112 13.1C101.852 13.44 101.512 13.72 101.132 13.9C100.732 14.1 100.292 14.2 99.7922 14.2C98.8522 14.2 98.1722 13.96 97.7522 13.48C97.3322 13.02 97.1322 12.34 97.1322 11.44V4.64H95.9322V11.46C95.9322 12 95.9922 12.5 96.1322 12.96C96.2522 13.42 96.4522 13.84 96.7522 14.18C97.0322 14.52 97.4122 14.8 97.8722 14.98C98.3322 15.18 98.9122 15.28 99.6122 15.28C100.072 15.28 100.472 15.22 100.812 15.12C101.152 15 101.472 14.86 101.732 14.68C101.992 14.52 102.212 14.34 102.412 14.14C102.612 13.94 102.792 13.74 102.952 13.56V15H104.152ZM116.245 15V0.599999H115.045V6.3C114.665 5.66 114.125 5.18 113.465 4.84C112.785 4.52 112.085 4.36 111.345 4.36C110.565 4.36 109.885 4.5 109.305 4.8C108.725 5.1 108.245 5.5 107.865 6C107.485 6.5 107.185 7.1 107.005 7.76C106.825 8.42 106.725 9.12 106.725 9.84C106.725 10.6 106.805 11.32 106.985 11.98C107.165 12.64 107.445 13.22 107.825 13.7C108.205 14.2 108.685 14.58 109.265 14.86C109.845 15.14 110.565 15.28 111.405 15.28C111.745 15.28 112.085 15.24 112.425 15.14C112.765 15.04 113.105 14.92 113.445 14.74C113.765 14.56 114.065 14.34 114.345 14.08C114.605 13.82 114.825 13.52 115.005 13.18H115.045V15H116.245ZM115.045 9.78C115.045 10.4 114.965 10.98 114.825 11.52C114.665 12.06 114.445 12.54 114.145 12.92C113.845 13.32 113.485 13.64 113.045 13.86C112.605 14.08 112.105 14.2 111.545 14.2C111.045 14.2 110.565 14.1 110.145 13.92C109.725 13.74 109.345 13.48 109.025 13.14C108.705 12.8 108.465 12.36 108.285 11.86C108.105 11.36 108.005 10.8 108.005 10.14C107.985 9.48 108.025 8.88 108.165 8.3C108.305 7.74 108.505 7.24 108.805 6.82C109.105 6.4 109.465 6.06 109.925 5.8C110.385 5.56 110.925 5.44 111.545 5.44C112.085 5.44 112.585 5.56 113.025 5.78C113.445 6.02 113.825 6.34 114.125 6.72C114.425 7.12 114.645 7.58 114.805 8.1C114.965 8.64 115.045 9.2 115.045 9.78ZM127.492 15V4.64H126.292V10.28C126.292 10.86 126.212 11.38 126.072 11.86C125.932 12.34 125.712 12.76 125.452 13.1C125.192 13.44 124.852 13.72 124.472 13.9C124.072 14.1 123.632 14.2 123.132 14.2C122.192 14.2 121.512 13.96 121.092 13.48C120.672 13.02 120.472 12.34 120.472 11.44V4.64H119.272V11.46C119.272 12 119.332 12.5 119.472 12.96C119.592 13.42 119.792 13.84 120.092 14.18C120.372 14.52 120.752 14.8 121.212 14.98C121.672 15.18 122.252 15.28 122.952 15.28C123.412 15.28 123.812 15.22 124.152 15.12C124.492 15 124.812 14.86 125.072 14.68C125.332 14.52 125.552 14.34 125.752 14.14C125.952 13.94 126.132 13.74 126.292 13.56V15H127.492Z" fill="white"/>
</svg>
